<svg width="19" height="19" viewBox="0 0 19 19" fill="none" xmlns="http://www.w3.org/2000/svg">
<path d="M9.78265 5.90538C9.78265 5.58756 9.52502 5.32993 9.20721 5.32993C8.8894 5.32993 8.63176 5.58756 8.63176 5.90538V9.74169C8.63176 9.9401 8.73397 10.1245 8.90222 10.2297L11.204 11.6683C11.4735 11.8367 11.8285 11.7548 11.997 11.4853C12.1654 11.2158 12.0835 10.8608 11.814 10.6923L9.78265 9.42275V5.90538Z" fill="black"/>
<path fill-rule="evenodd" clip-rule="evenodd" d="M9.20721 3.02814C5.49941 3.02814 2.49365 6.0339 2.49365 9.74169C2.49365 13.4495 5.49941 16.4552 9.20721 16.4552C12.915 16.4552 15.9208 13.4495 15.9208 9.74169C15.9208 6.0339 12.915 3.02814 9.20721 3.02814ZM3.64455 9.74169C3.64455 6.66952 6.13504 4.17903 9.20721 4.17903C12.2794 4.17903 14.7699 6.66952 14.7699 9.74169C14.7699 12.8139 12.2794 15.3044 9.20721 15.3044C6.13504 15.3044 3.64455 12.8139 3.64455 9.74169Z" fill="black"/>
</svg>
