<svg width="100" height="100" viewBox="0 0 100 100" fill="none" xmlns="http://www.w3.org/2000/svg">
<g clip-path="url(#clip0_60_38)">
<path d="M99.9707 0H0.0292969C0.0131167 0 0 0.0131167 0 0.0292969V99.9707C0 99.9869 0.0131167 100 0.0292969 100H99.9707C99.9869 100 100 99.9869 100 99.9707V0.0292969C100 0.0131167 99.9869 0 99.9707 0Z" fill="#5775E0"/>
<path d="M67.5781 76.5625L63.4766 71.6797C71.4844 69.5312 74.6094 64.0625 74.6094 64.0625C64.4531 73.6328 36.7188 74.0234 25.9766 64.0625C25.9766 64.0625 28.7109 69.1406 36.9141 71.6797L32.4219 76.5625C18.75 76.3672 13.4766 67.1875 13.4766 67.1875C13.4766 46.875 22.4609 30.6641 22.4609 30.6641C31.6406 24.2188 40.0391 24.2188 40.0391 24.2188L40.625 25C29.2969 28.125 24.4141 33.2031 24.4141 33.2031C37.6953 24.2188 65.0391 25 75.7812 33.2031C75.9766 33.0078 69.3359 27.7344 58.9844 25L59.9609 24.2188C59.9609 24.2188 68.3594 24.2188 77.5391 30.6641C77.5391 30.6641 86.5234 46.875 86.5234 67.1875C86.5234 67.1875 81.25 76.3672 67.5781 76.5625Z" fill="white"/>
<path d="M38.2812 61.3281C41.8409 61.3281 44.7266 58.2676 44.7266 54.4922C44.7266 50.7168 41.8409 47.6562 38.2812 47.6562C34.7216 47.6562 31.8359 50.7168 31.8359 54.4922C31.8359 58.2676 34.7216 61.3281 38.2812 61.3281Z" fill="#7289DA"/>
<path d="M60.9375 61.3281C64.4971 61.3281 67.3828 58.2676 67.3828 54.4922C67.3828 50.7168 64.4971 47.6562 60.9375 47.6562C57.3779 47.6562 54.4922 50.7168 54.4922 54.4922C54.4922 58.2676 57.3779 61.3281 60.9375 61.3281Z" fill="#7289DA"/>
</g>
<defs>
<clipPath id="clip0_60_38">
<rect width="100" height="100" rx="16" fill="white"/>
</clipPath>
</defs>
</svg>
