<svg width="31" height="30" viewBox="0 0 31 30" fill="none" xmlns="http://www.w3.org/2000/svg">
<path fill-rule="evenodd" clip-rule="evenodd" d="M4.00455 10.4416C3.65437 13.6952 3.66998 17.4477 4.15726 20.6881C4.42688 22.4811 5.89022 23.8557 7.69655 24.0127L9.58435 24.1768C13.5207 24.519 17.4792 24.519 21.4155 24.1768L23.3033 24.0127C25.1097 23.8557 26.573 22.4811 26.8426 20.6881C27.3299 17.4477 27.3455 13.6954 26.9954 10.4418C26.9501 10.0646 26.8992 9.68792 26.8426 9.31186C26.573 7.51887 25.1097 6.14431 23.3033 5.98729L21.4155 5.82319C17.4792 5.48101 13.5207 5.48102 9.58434 5.82319L7.69655 5.98729C5.89022 6.14431 4.42688 7.51887 4.15726 9.31186C4.10072 9.68786 4.04981 10.0645 4.00455 10.4416ZM9.74672 7.69115C13.575 7.35836 17.4249 7.35836 21.2532 7.69115L23.1409 7.85525C24.0839 7.93721 24.8477 8.65474 24.9885 9.59068C25.0031 9.68788 25.0173 9.78512 25.0311 9.8824L18.0799 13.7442C16.4754 14.6356 14.5244 14.6356 12.9199 13.7442L5.96875 9.88245C5.98257 9.78515 5.99679 9.68789 6.01141 9.59068C6.15216 8.65474 6.91602 7.93721 7.85893 7.85525L9.74672 7.69115ZM25.2606 11.8999C25.503 14.7345 25.4123 17.5906 24.9885 20.4093C24.8477 21.3453 24.0839 22.0628 23.141 22.1447L21.2532 22.3088C17.4249 22.6416 13.575 22.6416 9.74672 22.3088L7.85893 22.1447C6.91602 22.0628 6.15216 21.3453 6.01141 20.4093C5.58755 17.5906 5.49685 14.7346 5.73931 11.8999L12.0093 15.3833C14.1801 16.5892 16.8197 16.5892 18.9905 15.3833L25.2606 11.8999Z" fill="#0275D8"/>
</svg>
