<svg width="100" height="100" viewBox="0 0 100 100" fill="none" xmlns="http://www.w3.org/2000/svg">
<rect width="100" height="100" rx="16" fill="#242424"/>
<path fill-rule="evenodd" clip-rule="evenodd" d="M49.5 17C30.997 17 16 31.997 16 50.5C16 65.2951 25.6003 77.8507 38.9085 82.2929C40.5789 82.6049 41.203 81.5586 41.203 80.6775C41.203 79.8699 41.1663 77.2449 41.1663 74.4364C31.8414 76.4556 29.8773 70.4899 29.8773 70.4899C28.3537 66.6167 26.151 65.5888 26.151 65.5888C23.1038 63.5145 26.3712 63.5512 26.3712 63.5512C29.7304 63.7899 31.511 67.0022 31.511 67.0022C34.503 72.1236 39.349 70.6367 41.2581 69.7923C41.5518 67.6263 42.4329 66.1578 43.3874 65.3134C35.9531 64.469 28.1151 61.5871 28.1151 48.7562C28.1151 45.1033 29.4184 42.1112 31.566 39.7616C31.2173 38.9173 30.0792 35.503 31.8964 30.8956C31.8964 30.8956 34.7049 29.9962 41.1112 34.3282C43.7912 33.594 46.6548 33.2085 49.5 33.2085C52.3452 33.2269 55.2088 33.594 57.8888 34.3282C64.2767 29.9962 67.0852 30.8956 67.0852 30.8956C68.9025 35.503 67.7644 38.9173 67.4156 39.7616C69.5633 42.1112 70.8666 45.1033 70.8666 48.7562C70.8666 61.6238 63.0285 64.4507 55.5759 65.2767C56.769 66.323 57.8521 68.3605 57.8521 71.4811C57.8521 75.96 57.8153 79.5762 57.8153 80.6775C57.8153 81.577 58.4211 82.6049 60.1099 82.2929C73.4181 77.8507 83 65.3134 83 50.5C83 31.997 68.003 17 49.5 17Z" fill="white"/>
<path d="M28.6841 65.0931C28.6106 65.2583 28.3537 65.3134 28.115 65.2033C27.8764 65.0931 27.7295 64.8729 27.8213 64.7077C27.8948 64.5425 28.1517 64.4874 28.3904 64.5975C28.629 64.7077 28.7758 64.9279 28.6841 65.0931Z" fill="white"/>
<path d="M30.0423 66.6167C29.8771 66.7636 29.5651 66.6901 29.3632 66.4699C29.1429 66.2312 29.1062 65.9192 29.2714 65.7723C29.4366 65.6255 29.7303 65.6989 29.9505 65.9192C30.1708 66.1578 30.2075 66.4699 30.0423 66.6167Z" fill="white"/>
<path d="M31.3642 68.5441C31.1623 68.6909 30.8319 68.5625 30.6116 68.2504C30.4097 67.9567 30.4097 67.5896 30.6116 67.4427C30.8136 67.2959 31.144 67.4244 31.3642 67.7181C31.5845 68.0301 31.5845 68.3973 31.3642 68.5441Z" fill="white"/>
<path d="M33.1813 70.3981C32.9977 70.6 32.6122 70.5449 32.3186 70.2696C32.0249 69.9942 31.9514 69.6088 32.135 69.4068C32.3186 69.2049 32.7224 69.26 32.9977 69.5353C33.2914 69.829 33.3649 70.2145 33.1813 70.3981Z" fill="white"/>
<path d="M35.6778 71.4811C35.6044 71.7381 35.2189 71.8666 34.8335 71.7564C34.448 71.6463 34.2093 71.3343 34.2828 71.0773C34.3562 70.8203 34.7417 70.6918 35.1272 70.8019C35.4943 70.9121 35.7513 71.2241 35.6778 71.4811Z" fill="white"/>
<path d="M38.4128 71.683C38.4311 71.9583 38.1007 72.197 37.6969 72.197C37.2931 72.2153 36.981 71.9767 36.9626 71.7013C36.9626 71.426 37.2747 71.1874 37.6785 71.1874C38.0824 71.1874 38.4128 71.4076 38.4128 71.683Z" fill="white"/>
<path d="M40.9645 71.2608C41.0196 71.5361 40.7442 71.8115 40.3404 71.8849C39.9549 71.9583 39.5878 71.7931 39.5511 71.5178C39.496 71.2424 39.7897 70.9671 40.1752 70.8937C40.5607 70.8202 40.9094 70.9854 40.9645 71.2608Z" fill="white"/>
</svg>