<svg width="100" height="100" viewBox="0 0 100 100" fill="none" xmlns="http://www.w3.org/2000/svg">
<g clip-path="url(#clip0_60_29)">
<path d="M32.738 0.577867C38.7708 0.291963 44.8159 -0.000366211 50.5749 -0.000366211C56.3338 -0.000366211 61.8069 0.291963 67.2861 0.583964C84.5321 0.583964 99.4088 15.4852 99.4088 32.7238C99.7074 38.3808 99.9997 44.0379 99.9997 49.7883C99.9997 55.5449 99.7135 61.4134 99.4149 67.2818C99.4149 84.5391 84.5386 99.4216 67.2614 99.4216C61.863 99.7075 56.4647 99.9996 50.7056 99.9996C44.9465 99.9996 38.8267 99.7137 32.7194 99.4216C15.4483 99.4216 0.565634 84.5391 0.565634 67.2818C0.285707 61.1274 -0.000488281 54.9418 -0.000488281 49.1916C-0.000488281 43.435 0.285539 38.0887 0.577996 32.7363C0.577996 15.4728 15.4669 0.578031 32.7317 0.578031H32.738V0.577867Z" fill="#987FFF"/>
<path d="M50.3142 16.8034C68.5057 16.9713 83.2141 31.7668 83.2141 50C83.2141 57.18 80.913 63.8317 77.0384 69.2713C71.018 77.6823 61.1542 83.1717 50.0094 83.1717C46.0912 83.1717 42.2975 82.488 38.7836 81.2196C37.7449 80.8465 36.7311 80.4238 35.7486 79.9514C24.7716 74.7109 17.1219 63.6205 16.8418 50.7211V50C16.8418 35.1734 26.5565 22.622 39.9777 18.3577C43.1494 17.3505 46.5266 16.8034 50.0341 16.8034H50.3452H50.3142Z" fill="#B5A5FE"/>
<path d="M50.3762 18.2953L50.2207 20.9312L51.9746 21.5839L53.8777 22.5164L55.8492 22.734L57.7524 23.2436L58.7039 23.5295L60.0099 24.3999V25.5002L60.0721 26.8989L60.5076 28.1422L62.4045 29.2364L63.7975 30.1068H64.5252L64.5873 31.0019L64.6681 32.3883L64.0959 33.2585L63.4368 34.2718L63.3 34.8623L64.1084 35.882L65.1159 36.6279L65.8496 36.777L66.9506 36.1182L68.1199 34.6448L69.2206 33.9984L70.1722 34.2159L71.559 34.6511L72.8651 35.6146L73.4621 35.9565V36.7958L73.2755 38.2256L72.6164 38.2568L71.7021 37.7097L70.0477 37.5605L68.1072 38.1202L67.4854 38.5179L66.3907 39.1395L64.923 39.4691H63.5423L61.8197 39.842L60.3269 40.613L59.5994 41.9806L58.6043 43.597L58.0633 44.4674L58.0384 46.3944L57.9639 47.9361L58.8345 49.1171L59.7175 50.0496L60.5882 51.4483L61.1791 51.958L61.5647 52.3062L61.9379 52.6793L62.7029 53.0522L63.3995 53.0336L64.0835 52.4432L64.9543 51.8216L65.346 51.2494L65.8747 50.7895H66.7081L67.2058 51.3739L67.6721 51.9768L68.3812 52.4743L68.7046 52.9528L69.0779 53.8046L69.0342 54.7867V55.6571L69.1463 56.689L69.5194 57.3543L70.0978 58.3117L70.2533 59.7725L70.5021 61.4075L70.5207 62.4021L70.6265 64.1055V65.3114L71.4972 66.3061L72.6602 67.0211L73.8108 67.2447L74.8058 67.6799L75.4526 68.6124C75.4526 68.6124 76.4476 69.2777 76.7337 69.2777C76.7958 69.2777 76.8829 69.2777 77.0073 69.2961C80.8881 63.8504 83.1769 57.1987 83.1769 50.0248C83.1769 31.7853 68.4682 16.9899 50.2769 16.8284L50.3391 18.3203L50.3762 18.2953Z" fill="white"/>
<path d="M19.8767 50.4537L17.103 50.6712L16.8232 50.721C17.103 63.6204 24.7466 74.7169 35.7299 79.9513L35.6677 78.0865L35.8169 76.9862L36.3145 75.1834V73.1941L36.4513 70.9376L36.3768 69.1099L35.5683 68.0283L35.1328 66.9217L33.8268 65.902L32.8005 64.8762L31.5567 63.4154L31.482 61.799L31.0466 59.9775L30.9719 58.0938L31.6437 56.9873L32.0044 55.8061L31.9299 53.9846L30.9035 53.6115L30.2444 53.0956L28.565 52.2874L26.5127 50.8327L25.6421 50.3975L22.6381 50.6213L19.8644 50.4659L19.8767 50.4537Z" fill="#B5A5FE"/>
<path d="M38.5971 80.5233L39.7662 79.28L41.5201 77.6015L42.9816 76.7934L44.5365 75.1149L46.2779 73.511L47.3973 71.7579L48.4174 70.2224L49.1636 69.6381L49.4496 68.3948L49.9473 66.9837L50.4635 65.5229L51.3341 64.2794L52.7334 63.4092V60.6243L51.5642 59.7539L50.457 59.5303L49.1324 58.8899L47.8886 58.5294L45.2517 58.0942L43.9332 56.6271L43.1247 55.8997L41.8809 54.3456L40.4939 52.7293L39.2812 51.4858L37.6641 50.6156L35.5497 50.4727L34.2063 51.3678L33.2611 51.7409L31.725 51.5173L30.1701 50.3361L28.4287 48.6825L27.6698 47.6443L25.7544 47.2091L24.8838 46.7116L24.4858 44.536L24.9833 43.7712L26.3516 42.5155L27.2223 42.1859L28.491 42.8449L29.5794 43.218L30.618 42.7828L30.8481 41.9124L31.2214 40.5946L32.0298 38.7919L31.9302 37.1943L31.8681 36.4232L33.7961 34.6206L35.3322 33.0229L36.1593 32.855L36.433 33.5202H37.4281L38.4543 32.65L39.0389 31.3258L39.5489 30.0824L39.238 28.9138V24.0648L40.4196 23.2567L41.7257 22.8213L42.1735 22.3861L42.7582 21.7955L42.6835 20.9874L41.2966 19.3837L39.9533 18.3517C26.5384 22.6411 16.8176 35.1862 16.8176 49.994C16.8176 50.2426 16.8176 50.4913 16.83 50.74L17.1099 50.6777L19.896 50.4602L22.6697 50.6093L25.6675 50.3793L26.5383 50.8268L28.5906 52.2878L30.2698 53.0959L30.9291 53.5932L31.9616 53.9475L32.0361 55.7753L31.6628 56.9563L31.0098 58.063L31.0845 59.9591L31.5199 61.793L31.5821 63.4094L32.8259 64.8641L33.8521 65.8899L35.1583 66.9094L35.6061 68.0098L36.4145 69.104L36.4768 70.9379L36.3337 73.2006V75.1899L35.8362 77.0114L35.6931 78.1119L35.7366 79.9767C36.7317 80.4553 37.7268 80.8781 38.7716 81.251L38.6101 80.5673L38.5971 80.5233Z" fill="white"/>
<path d="M50.3142 16.8034H50.0031C46.5017 16.8034 43.1183 17.3503 39.9466 18.3576L41.3024 19.3958L42.7141 20.9996L42.7888 21.8077L42.1979 22.3921L41.7625 22.8273L40.444 23.2625L39.2809 24.0706V28.8698L39.5732 30.0386L39.0508 31.2819L38.46 32.606L37.4214 33.4764H36.4263L36.1587 32.8235L35.3379 32.9789L33.8018 34.5704L31.8739 36.373L31.9361 37.1377L32.0482 38.7291L31.2397 40.5318L30.8665 41.856L30.6301 42.7263L29.5976 43.1615L28.4967 42.7884L27.2342 42.1294L26.3636 42.4527L24.9829 43.696L24.4854 44.4732L24.8771 46.6676L25.7478 47.1649L27.6757 47.6001L28.4531 48.6322L30.1945 50.2796L31.7493 51.4607L33.3042 51.6845L34.2371 51.3114L35.5618 50.4412L37.6762 50.5778L39.2933 51.4482L40.5372 52.6915L41.9241 54.3079L43.1679 55.8371L43.9764 56.5582L45.2826 58.0253L47.9257 58.4605L49.1696 58.8336L50.4756 59.4802L51.5765 59.6977L52.7582 60.568V63.3467L51.3589 64.217L50.4883 65.4603L49.9906 66.9274L49.4744 68.3137L49.1821 69.557L48.4358 70.1413L47.4223 71.6706L46.3213 73.4237L44.5674 75.0401L43.0313 76.7188L41.5822 77.5143L39.8284 79.193L38.6654 80.4363L38.8269 81.1325C42.3346 82.3945 46.1222 83.0846 50.0839 83.0846C61.2163 83.0846 71.0801 77.5953 77.1003 69.178L76.8329 69.1533C76.5655 69.1533 75.5767 68.5006 75.5767 68.5006L74.9298 67.568L73.9473 67.1328L72.7903 66.9153L71.6272 66.2003L70.7566 65.2057V64.0121L70.6447 62.315L70.626 61.3017L70.3773 59.6606L70.2218 58.1998L69.631 57.2487L69.2577 56.5897L69.1582 55.5578V54.6751L69.1892 53.6928L68.8159 52.8474L68.4925 52.375L67.7959 51.8775L67.348 51.2683L66.8381 50.6839H65.9238L65.389 51.144L64.9909 51.7284L64.1203 52.3499L63.4363 52.9343L62.7396 52.9654L61.956 52.5923L61.5828 52.2193L61.2096 51.8836L60.6187 51.3861L59.7481 49.9874L58.865 49.055L57.9944 47.8739L58.0565 46.3509L58.0814 44.405L58.6038 43.5347L59.5988 41.9183L60.3264 40.5506L61.8192 39.7798L63.5606 39.4067H64.9475L66.409 39.0834L67.4911 38.4618L68.113 38.0577L70.0535 37.4983L71.6953 37.6474L72.6159 38.1944L73.2751 38.1569L73.4616 36.7271V35.8878L72.8707 35.5398L71.5461 34.5887L70.1593 34.1535L69.2264 33.9422L68.1255 34.6073L66.9563 36.0683L65.8617 36.721L65.1277 36.5719L64.114 35.8445L63.3056 34.8187L63.43 34.2281L64.0893 33.2023L64.6678 32.3319L64.6055 30.9395L64.5433 30.0693H63.797L62.404 29.174L60.5071 28.0798L60.0716 26.8365L59.9908 25.4441V24.3871L58.6848 23.5169L57.7207 23.2185L55.8176 22.7086L53.8398 22.4848L51.9369 21.5339L50.1829 20.8935L50.3321 18.2578L50.2698 16.7656L50.3142 16.8034Z" fill="#B5A5FE"/>
</g>
<defs>
<clipPath id="clip0_60_29">
<rect width="100" height="100" fill="white"/>
</clipPath>
</defs>
</svg>
